<svg height="0" width="0" fill="none" style="position:fixed">
    <defs>
        <svg fill="none" id="clearButton" viewBox="0 0 24 24">
            <!-- "Close" from Google Material Icons -->
           <path d="M19 6.41L17.59 5 12 10.59 6.41 5 5 6.41 10.59 12 5 17.59 6.41 19 12 13.41 17.59 19 19 17.59 13.41 12z" />
        </svg>
        <svg fill="none" id="searchGlass" viewBox="0 0 24 24">
            <!-- "Search" from Google Material Icons -->
            <path d="M15.5 14h-.79l-.28-.27C15.41 12.59 16 11.11 16 9.5 16 5.91 13.09 3 9.5 3S3 5.91 3 9.5 5.91 16 9.5 16c1.61 0 3.09-.59 4.23-1.57l.27.28v.79l5 4.99L20.49 19l-4.99-5zm-6 0C7.01 14 5 11.99 5 9.5S7.01 5 9.5 5 14 7.01 14 9.5 11.99 14 9.5 14z" />
        </svg>
        <svg fill="none" id="northWest" viewBox="0 0 24 24">
            <!-- "North West" from Google Material Icons -->
            <path d="M5,15h2V8.41L18.59,20L20,18.59L8.41,7H15V5H5V15z" />
        </svg>
    </defs>
</svg>