<svg viewBox="0 0 1400 1400" fill="none">
  <path
    d="M 1020.5 0 h 76.6 c 7.5 5.3 20.3 7.3 29 10.6 c 5.9 2.3 11.8 4.5 17.5 7.2 C 1191.1 36 1239 94.9 1249 144.4 c 6.7 32.9 11.5 73.1 16.8 108 a 5838 5838 0 0 1 30.6 211 c 2.3 18.7 4.7 39 7.9 57.6 c 2.9 17.2 8.1 35.4 11 52.7 c 2.3 13.3 4.1 26.8 6.1 40.2 c 0.9 5.9 5.3 18.9 5.5 23.5 c 1.5 29.4 1.8 62 -0.1 91.4 c -0.6 9 -4.7 25.2 -6.1 34.8 c -1.8 12.4 -3.5 26.3 -5.7 38.3 c -9.3 50.8 -24.5 97.5 -47.2 143.8 c -9.8 20.1 -22.8 46.9 -34.8 65.7 a 758 758 0 0 1 -46.4 65.4 c -4 5.6 -10.3 13 -15.4 17.6 c -137.3 153 -332.8 225.8 -536.8 201.6 c -25.1 15.8 -48.9 31.4 -76.1 43.3 c -30.2 13.2 -61.6 27.4 -93.2 36.6 a 645 645 0 0 1 -50.3 12.6 c -9.3 1.9 -36.5 5.2 -41.3 11.2 h -54 c -4.6 -6 -42.1 -14.3 -54.1 -20.2 c -22.1 -10.8 -42.7 -23.6 -59.8 -41.6 a 204.5 204.5 0 0 1 -29.4 -40.2 c -13.3 -24.3 -25.5 -62.2 -36 -88.5 c -8.4 -23.9 -20.9 -47.1 -26.2 -72.1 c -13.7 -64.6 -1.3 -130.7 47.2 -176.6 c -10.5 -18.5 -17.5 -41.9 -27 -61.2 c -7.4 -15.2 -16.9 -29.1 -23.8 -44.5 a 357.8 357.8 0 0 1 -27.9 -194.9 c 1.6 -11.7 5.5 -34.6 10.2 -45.4 c 12.7 -28.9 17 -56.3 25.2 -86.3 A 668.5 668.5 0 0 1 155 426.4 c 77.1 -163 221.8 -284 395.9 -331.1 c 47 -12.5 96.3 -18.3 144.8 -21 c 15.8 -0.9 39.2 2.1 53.3 -0.7 c 12.7 -2.5 24.2 -15.6 36 -21.4 c 24.8 -12.3 53.5 -19.2 80.7 -23.7 C 886.4 25.1 1011.9 6.8 1020 0.2 c 0.2 -0.1 0.3 -0.3 0.5 -0.5 m -881 649.7 c -0.6 7.9 -1.5 16.5 -1.5 24.4 a 286.4 286.4 0 0 0 28.4 122.7 c 4.6 9.7 9.7 19.1 14.5 28.7 c 18 36 31.7 74 52.6 108.6 c 2.6 4.3 5.1 9 7.5 13.4 c -12.1 7 -21 12.1 -31.7 21 c -6.7 6.7 -14.8 14.4 -21 21.3 c -28.2 38.5 -24.6 87.2 -6.5 129.3 c 14.1 32.7 25.5 68 39.9 100.8 c 4 9.1 11.6 19.3 14.9 27.2 c 8.2 8.1 17.8 17.1 25.4 25.6 c 13.6 10.8 35.2 21.2 52.3 23.4 c 68.5 9.1 168.6 -25.9 227.4 -58.7 a 428 428 0 0 0 29.2 -17.9 c 4.4 -3 31.5 -23.1 35.5 -23.3 c 20.6 -1.1 43.9 3.9 64.7 5.3 c 172.1 11.9 339.2 -63.5 449.9 -193.6 a 548.8 548.8 0 0 0 130.8 -347.1 c 0.8 -40.9 -5.9 -94.4 -15.1 -134.3 c -9.4 -40.6 -12.2 -77.8 -17.8 -118.8 a 9246 9246 0 0 0 -28.3 -189.6 c -5 -31.8 -8.5 -66.3 -16 -97.1 c -4.8 -20 -19.8 -39.8 -34.1 -54.6 a 112.5 112.5 0 0 0 -65.1 -33.3 c -41.3 -6.3 -103 10.4 -145 16.2 c -35.8 4.9 -74.1 11.2 -108.6 21.8 c -24.5 7.5 -34.5 26.7 -56.2 36.4 c -5.3 2.2 -40 0 -49.6 -0.3 c -143.9 -3.9 -280.5 46.7 -384.6 147.4 l -25 25 a 534.2 534.2 0 0 0 -125 210.3 c -7.9 24.8 -12.3 47.9 -18.3 72.9 c -3.2 13.3 -11.8 31 -15.7 44.6 c -2.8 9.9 -4.4 19.3 -6 29.5 c -0.3 2 -1.6 12 -2 13"
  />
  <path
    d="M 1171.3 1094.6 c -2.6 -7 9.5 -16.7 15.4 -17.6 c -4 5.6 -10.3 13 -15.4 17.6"
  />
  <path
    d="M 847.6 227.9 c -2.6 -13.9 -4.7 -27 -6.7 -40.9 c -2.8 -20.2 16 -25.7 32.6 -28.1 c 59.1 -8.3 118.3 -21.8 177.7 -27 c 19.1 -1.7 26 18.8 28.6 34.2 c 17.7 106.7 32.9 213.7 45.7 321.1 c 1.7 15.2 6.1 38 7.2 51.5 c -1.6 10.7 0.5 27.8 1.3 39 c 0.9 12.6 1.6 25.3 2 37.9 c 1 23.4 2 50.4 0.4 73.5 c -5.1 73.9 -35.5 140.3 -94.6 186 c -71.7 55.4 -166.5 74.7 -255.2 61.8 c -12.9 -1.9 -19.7 -1.9 -28.6 -11.7 c -13.1 -14.4 0.5 -55 -5.7 -64.4 c 4.5 -16 4.6 -31.7 6 -48.3 c 2.7 -5.3 2.2 -14.7 8.2 -21.7 c 9.2 -10.8 27.9 -11.6 41.8 -14.6 c 7.5 -1.7 14.8 -3.8 22 -6.4 c 15.1 -5.5 61.7 -30.5 61.5 -47.6 c 3.7 -6 11.4 -18.6 12.3 -25 c 5.1 -34.3 -0.2 -83.8 -2.9 -118.3 c -0.7 -15.5 -3.7 -34 -5.2 -49.7 c -0.7 -7 -2.9 -28.9 -4.6 -34.7 c -1.9 -6 -2 -13.9 -3.1 -19.7 c -3 -16.2 -6.6 -64.7 -11.7 -77.3 c 1.2 -9.9 -25.3 -161.1 -29 -169.5"
  />
  <path
    d="M 469.2 462.3 c 27.1 -5.6 65.9 -15.9 80.4 14.9 c -0.1 0.4 -0.1 0.7 -0.2 1.1 c -1.3 11.4 46.1 99.5 45.3 119.2 c -0.2 4 -2.2 7.3 -5.2 9.9 c -10.5 9.4 -61.4 14 -65.9 23.5 l 0.1 0.3 c -14 5.5 -30.2 21.4 -36.3 35.2 c -7.8 17.6 -2 39.9 6.6 56.1 c 5.1 21.9 67.2 82.8 85.2 105.3 c 51.3 64.3 71.9 138.5 30.8 213.8 c -4.1 7.7 -8 13.6 -12.8 20.7 c -2.7 4 -18.2 21.9 -18.8 23.9 c -9.8 17 -70.3 56.7 -90.6 66.4 c -44.4 21.2 -103.9 44.9 -154 45.9 c -2.6 0.1 -9.4 -2.2 -12 -3 c -12.9 -15.7 -20.8 -43.6 -28.8 -62.7 c -9.3 -21.8 -18.2 -44.5 -26.1 -66.8 c -1.3 -3.6 -3.1 -12.3 -1.8 -16.4 c 4.1 -7.7 30.2 -11.5 38.6 -13.9 a 138 138 0 0 0 18.1 -6.6 c 28.7 -12.8 48.9 -32 61.3 -60.8 c -8.6 -13.5 -21.5 -23.2 -30.8 -35.3 c -10.7 -14 -25 -34 -33.5 -48.6 c -7.5 -12.9 -36.7 -66.2 -35.4 -79.4 c -1.6 -6.4 -12.8 -21.4 -16.8 -28 c -35.5 -60.4 -42.9 -125 -4.8 -187.5 c 9.6 -11.9 19.2 -24.5 29.8 -35.3 c 34.2 -34.5 79.5 -61.1 125.1 -77 a 413 413 0 0 1 32.6 -9.6 c 6.3 -1.6 13.8 -2.7 19.7 -5.1"
  />
  <path
    d="M 283.6 804.8 c 2.2 1.2 27 28.6 33.4 36.8 c 25.9 32.9 80.5 78.4 66.8 125.7 l -0.5 0.8 c -8.6 -13.5 -21.5 -23.2 -30.8 -35.3 c -10.7 -14 -25 -34 -33.5 -48.6 c -7.5 -12.9 -36.7 -66.2 -35.4 -79.4"
  />
  <path
    d="M 306.4 279.5 c -0.5 -9.3 15.3 -24.6 25 -25 z M 188.2 989.8 c -0.9 -1.6 -0.7 -1.2 -1 -3.1 c 1.9 -4.9 17 -20.5 22 -21.1 l 0.1 3 c -6.7 6.7 -14.8 14.4 -21 21.3"
  />
  <path
    d="M 236.6 1247 c 8.2 8.1 17.8 17.1 25.4 25.6 c -9.3 -1.5 -24 -16.2 -25.4 -25.6"
  />
  <path
    d="M 137.9 674.1 c -5.1 -4.6 -3.7 -14.1 -2 -20.1 l -0.1 0.5 c 0.8 -3.1 0.5 -4.3 2.6 -6.3 l 1 1.5 c -0.6 7.9 -1.5 16.5 -1.5 24.4"
  />
</svg>
