<svg
   viewBox="0 0 600 600"
   fill="none">
   <path
      d="M518.039 346.98c2.338 4.996 4.525 9.651 6.864 14.628-17.332 5.519-28.583 16.042-26.666 34.963 1.85 18.26 13.55 28.125 33.266 30.722-6.04 9.163-10.873 17.678-16.824 25.325-28.925 37.166-65.075 65.467-107.513 85.664-27.8 13.232-56.977 21.768-87.761 24.885-65.231 6.603-122.91-11.773-173.788-52.296-28.24-22.493-50.206-50.361-66.356-82.61-12.516-24.993-20.205-51.457-23.574-79.344-2.804-23.21-1.267-46.044 2.536-68.897.13-.786.602-1.514 1.091-2.695 9.988 3.887 19.562 2.969 28.686-2.355 6.718-3.92 11.5-9.548 14.31-16.77 6.045-15.529-1.333-30.703-21.59-43.289 7.756-11.975 14.991-24.313 23.357-35.83 20.872-28.735 45.356-53.993 75.07-73.733 18.396-12.22 38.748-20.58 59.33-28.323 34.917-13.136 70.834-22.867 107.466-29.609 20.84-3.835 42.014-5.937 63.083-8.43 9.378-1.109 18.89-1.97 28.306-1.698 23.376.676 46.955.69 68.534 12.008 15.557 8.16 21.485 21.675 16.014 38.335-2.064 6.282-4.772 12.453-7.963 18.247-12.905 23.434-23.44 47.823-29.154 74-2.464 11.292-3.838 22.902-4.713 34.443-2.647 34.946 7.008 67.359 21.504 98.619 5.25 11.323 10.878 22.471 16.485 34.04M259.5 191.02c-12.828 0-25.657-.05-38.484.02-7.409.04-11.218 3.743-11.033 10.45.176 6.37 4.074 9.483 12.014 9.484 70.638.01 141.277.006 211.915.005.833 0 1.88.318 2.463-.066 2.913-1.915 6.803-3.41 8.323-6.168 3.718-6.751-2.034-13.717-10.768-13.719-57.81-.011-115.62-.006-174.43-.006m151 204.981c8.16 0 16.324.153 24.48-.048 7.616-.188 11.582-6.62 8.665-13.571-2.055-4.894-6.218-5.397-10.75-5.396-71.11.018-142.22.013-213.331.014-1.165 0-2.344-.08-3.494.059-4.52.546-7.822 4.163-8.066 8.74-.347 6.484 3.678 10.197 11.147 10.198 63.45.008 126.9.004 191.349.004m-123-93c27.814 0 55.629-.04 83.443.043 4.354.014 7.961-.973 9.917-5.165 3.328-7.132-1.176-13.85-9.36-13.863-29.814-.044-59.627-.018-89.44-.018-39.972 0-79.945.032-119.918-.046-4.345-.008-7.921.992-10.108 4.981-3.742 6.828 1.144 14.054 9.551 14.058 41.639.023 83.277.01 125.915.01m-50.687 219.55c6.27 13.203 16.548 20.124 31.326 19.419 13.251-.633 22.6-7.888 28.206-19.304 6.549-13.335 1.499-29.985-10.976-39.677-11.039-8.576-27.54-7.988-39.918 1.423-10.892 8.282-14.603 23.737-8.638 38.139m235.364-411.995c12.083-20.18-5.535-49.3-29.566-47.792-14.54.913-27.913 10.757-31.282 24.884-3.208 13.451 4.18 29.77 16.392 36.208 16.128 8.503 32.994 3.676 44.456-13.3z" />
</svg>