<svg xmlns:xlink="http://www.w3.org/1999/xlink" viewBox="0 0 600 600" xml:space="preserve">
<path fill="#262262" opacity="1.000000" stroke="none" 
	d="
M518.038513,346.980530 
	C520.376770,351.976318 522.564087,356.631073 524.902527,361.607666 
	C507.571259,367.126801 496.320160,377.649902 498.236786,396.570770 
	C500.086395,414.830139 511.786224,424.695648 531.502502,427.293243 
	C525.463440,436.455566 520.629517,444.971313 514.678650,452.617767 
	C485.753998,489.783752 449.604187,518.084961 407.166260,538.282410 
	C379.365051,551.513794 350.188965,560.050476 319.404938,563.166565 
	C254.174011,569.769592 196.494904,551.394165 145.617355,510.870941 
	C117.377701,488.378418 95.410698,460.509705 79.261116,428.260712 
	C66.745285,403.267944 59.056477,376.803589 55.687019,348.917267 
	C52.882511,325.706573 54.419895,302.873413 58.222961,280.019684 
	C58.353622,279.234497 58.825329,278.506073 59.314457,277.325470 
	C69.302216,281.212280 78.875717,280.293732 88.000099,274.970398 
	C94.718399,271.050812 99.499489,265.421844 102.310387,258.200684 
	C108.355339,242.671295 100.977226,227.496979 80.719307,214.911392 
	C88.475990,202.936295 95.711166,190.597931 104.077019,179.080902 
	C124.949417,150.346390 149.432571,125.088364 179.147507,105.348221 
	C197.542999,93.127777 217.895462,84.767128 238.476547,77.024803 
	C273.393890,63.889362 309.311157,54.158459 345.942841,47.416451 
	C366.783722,43.580719 387.956573,41.479122 409.026093,38.986691 
	C418.403961,37.877331 427.916351,37.015522 437.331635,37.287739 
	C460.708160,37.963593 484.286926,37.977062 505.866180,49.296108 
	C521.423279,57.456318 527.350830,70.970596 521.879517,87.630653 
	C519.816345,93.912987 517.108215,100.083862 513.917480,105.877899 
	C501.012299,129.312271 490.477112,153.700851 484.763092,179.878815 
	C482.298553,191.169601 480.924500,202.780273 480.050171,214.320999 
	C477.402679,249.266724 487.058441,281.679718 501.553772,312.939606 
	C506.804413,324.262848 512.431946,335.411316 518.038513,346.980530 
M259.500000,191.020218 
	C246.671875,191.020309 233.843460,190.970169 221.015717,191.039810 
	C213.607346,191.080032 209.797897,194.782623 209.983139,201.490219 
	C210.159058,207.860336 214.056763,210.973373 221.997131,210.974396 
	C292.635376,210.983566 363.273590,210.979675 433.911835,210.979080 
	C434.744812,210.979080 435.791229,211.296555 436.374756,210.913086 
	C439.288269,208.998444 443.178101,207.503525 444.697571,204.744629 
	C448.415649,197.993866 442.663971,191.027924 433.930206,191.026230 
	C376.120148,191.015030 318.310059,191.020325 259.500000,191.020218 
M410.500000,396.001221 
	C418.660248,396.000183 426.824310,396.154358 434.979584,395.952911 
	C442.596039,395.764740 446.562134,389.333496 443.644531,382.381775 
	C441.590485,377.487762 437.426514,376.984589 432.894745,376.985779 
	C361.784515,377.004333 290.674286,376.998566 219.564041,377.000488 
	C218.398560,377.000519 217.220184,376.919464 216.069870,377.058594 
	C211.549789,377.605133 208.248245,381.221985 208.003571,385.798859 
	C207.656921,392.282867 211.681961,395.995697 219.151077,395.996643 
	C282.600708,396.004639 346.050354,396.001221 410.500000,396.001221 
M287.500000,303.001770 
	C315.314331,303.001740 343.128784,302.960663 370.942871,303.044434 
	C375.297089,303.057526 378.904083,302.070892 380.860352,297.878693 
	C384.188293,290.747192 379.683716,284.028381 371.499176,284.016296 
	C341.686279,283.972229 311.873291,283.998352 282.060333,283.998260 
	C242.087646,283.998138 202.114899,284.030457 162.142365,283.952087 
	C157.797424,283.943573 154.220505,284.943848 152.034119,288.933136 
	C148.292068,295.760834 153.177658,302.986664 161.585358,302.991241 
	C203.223572,303.013977 244.861786,303.001709 287.500000,303.001770 
M236.812775,522.550720 
	C243.083664,535.753906 253.361404,542.675171 268.139313,541.969788 
	C281.390137,541.337280 290.738800,534.081726 296.344788,522.666443 
	C302.893982,509.330597 297.843781,492.681335 285.368713,482.989105 
	C274.330048,474.412903 257.828857,475.001251 245.451141,484.412323 
	C234.558838,492.694000 230.847900,508.149353 236.812775,522.550720 
M472.177307,110.556404 
	C484.260193,90.375923 466.641510,61.256062 442.610931,62.764359 
	C428.070618,63.676998 414.698181,73.520515 411.329285,87.647652 
	C408.121490,101.099144 415.509155,117.418030 427.721283,123.856384 
	C443.849152,132.359161 460.714752,127.532440 472.177307,110.556404 
z"/>
<path fill="#FBFBFB" opacity="1.000000" stroke="none" 
	d="
M66.897018,248.738800 
	C70.840706,238.860931 74.691536,229.366058 78.701614,219.478546 
	C89.704742,223.048828 96.071869,230.065216 98.969322,240.275848 
	C102.228874,251.762512 98.671684,261.325043 89.663956,268.745087 
	C80.864243,275.993805 70.972633,277.487823 59.519943,272.819366 
	C61.968929,264.852173 64.386543,256.987000 66.897018,248.738800 
z"/>
<path fill="#FCFCFC" opacity="1.000000" stroke="none" 
	d="
M527.247803,367.587891 
	C533.786438,384.272095 537.522156,400.842834 533.213440,418.459198 
	C532.315002,422.132568 530.728271,422.802307 527.395081,422.404144 
	C513.542297,420.749359 502.767059,409.134369 501.984100,394.784851 
	C501.281891,381.915405 510.853973,369.413391 523.831116,366.436401 
	C524.811279,366.211578 526.009583,366.937195 527.247803,367.587891 
z"/>
<path fill="#D5326E" opacity="1.000000" stroke="none" 
	d="
M538.006104,390.247040 
	C535.858337,381.855499 533.748108,373.897980 531.645813,365.970123 
	C545.561340,365.978668 557.288330,377.322174 558.851929,392.410553 
	C560.197083,405.391052 550.415894,418.509735 538.043640,421.094482 
	C538.043640,411.044098 538.043640,400.862579 538.006104,390.247040 
z"/>
<path fill="#D5326E" opacity="1.000000" stroke="none" 
	d="
M44.580933,255.246307 
	C39.802212,234.721497 56.112629,214.989059 73.823074,219.069717 
	C67.715813,235.903473 61.599873,252.761169 55.319885,270.071014 
	C50.159210,266.720612 46.919819,261.586792 44.580933,255.246307 
z"/>
<path fill="#1C1B21" opacity="1.000000" stroke="none" 
	d="
M260.000000,191.020233 
	C318.310059,191.020325 376.120148,191.015030 433.930206,191.026230 
	C442.663971,191.027924 448.415649,197.993866 444.697571,204.744629 
	C443.178101,207.503525 439.288269,208.998444 436.374756,210.913086 
	C435.791229,211.296555 434.744812,210.979080 433.911835,210.979080 
	C363.273590,210.979675 292.635376,210.983566 221.997131,210.974396 
	C214.056763,210.973373 210.159058,207.860336 209.983139,201.490219 
	C209.797897,194.782623 213.607346,191.080032 221.015717,191.039810 
	C233.843460,190.970169 246.671875,191.020309 260.000000,191.020233 
M266.500214,195.614487 
	C251.844193,195.614502 237.188171,195.606812 222.532150,195.618195 
	C216.370377,195.622971 214.120377,197.034027 214.296204,201.019409 
	C214.539444,206.533112 218.566650,206.513016 222.573761,206.386841 
	C222.906509,206.376358 223.239899,206.385498 223.572983,206.385498 
	C293.022522,206.385498 362.472076,206.385864 431.921631,206.382828 
	C433.419403,206.382767 434.923920,206.426788 436.413635,206.306305 
	C439.986420,206.017288 441.282623,203.753326 441.053314,200.481735 
	C440.702759,195.480164 437.002747,195.607300 433.379730,195.607925 
	C378.086578,195.617401 322.793396,195.614487 266.500214,195.614487 
z"/>
<path fill="#000001" opacity="1.000000" stroke="none" 
	d="
M410.000000,396.001221 
	C346.050354,396.001221 282.600708,396.004639 219.151077,395.996643 
	C211.681961,395.995697 207.656921,392.282867 208.003571,385.798859 
	C208.248245,381.221985 211.549789,377.605133 216.069870,377.058594 
	C217.220184,376.919464 218.398560,377.000519 219.564041,377.000488 
	C290.674286,376.998566 361.784515,377.004333 432.894745,376.985779 
	C437.426514,376.984589 441.590485,377.487762 443.644531,382.381775 
	C446.562134,389.333496 442.596039,395.764740 434.979584,395.952911 
	C426.824310,396.154358 418.660248,396.000183 410.000000,396.001221 
M354.500000,392.000000 
	C379.828430,392.000000 405.156830,392.000061 430.485260,391.999847 
	C431.984985,391.999847 433.485474,392.029083 434.984253,391.990387 
	C438.423279,391.901642 440.311432,389.950348 440.362457,386.680267 
	C440.417053,383.179199 438.514282,381.092560 434.822388,381.006226 
	C433.989655,380.986755 433.156097,381.000183 432.322937,381.000183 
	C361.503326,381.000031 290.683746,380.998962 219.864136,381.007751 
	C218.536453,381.007904 216.709320,380.600372 215.982864,381.293060 
	C214.364838,382.835754 212.355042,384.925354 212.293259,386.849518 
	C212.240723,388.485504 214.449661,390.535065 216.127502,391.756958 
	C217.124054,392.482697 219.029175,391.994873 220.525787,391.995087 
	C264.850525,392.001160 309.175262,392.000000 354.500000,392.000000 
z"/>
<path fill="#010101" opacity="1.000000" stroke="none" 
	d="
M287.000000,303.001770 
	C244.861786,303.001709 203.223572,303.013977 161.585358,302.991241 
	C153.177658,302.986664 148.292068,295.760834 152.034119,288.933136 
	C154.220505,284.943848 157.797424,283.943573 162.142365,283.952087 
	C202.114899,284.030457 242.087646,283.998138 282.060333,283.998260 
	C311.873291,283.998352 341.686279,283.972229 371.499176,284.016296 
	C379.683716,284.028381 384.188293,290.747192 380.860352,297.878693 
	C378.904083,302.070892 375.297089,303.057526 370.942871,303.044434 
	C343.128784,302.960663 315.314331,303.001740 287.000000,303.001770 
M200.500000,288.000427 
	C187.346893,288.001099 174.188766,287.822540 161.045990,288.191406 
	C159.023026,288.248138 156.259933,290.443665 155.363754,292.362213 
	C154.740982,293.695496 156.287216,296.689392 157.700836,298.107941 
	C158.710739,299.121368 161.108246,298.967529 162.886795,298.968475 
	C231.815918,299.005127 300.745056,298.999634 369.674194,298.999023 
	C370.673126,298.998993 371.997955,299.398834 372.610199,298.910034 
	C374.485626,297.412781 377.070709,295.815399 377.565674,293.809387 
	C378.311157,290.787933 376.175446,288.481842 372.819489,288.070862 
	C371.341797,287.889893 369.826630,288.002258 368.328491,288.002197 
	C312.718994,288.000092 257.109497,288.000427 200.500000,288.000427 
z"/>
<path fill="#070708" opacity="1.000000" stroke="none" 
	d="
M236.635498,522.208374 
	C230.847900,508.149353 234.558838,492.694000 245.451141,484.412323 
	C257.828857,475.001251 274.330048,474.412903 285.368713,482.989105 
	C297.843781,492.681335 302.893982,509.330597 296.344788,522.666443 
	C290.738800,534.081726 281.390137,541.337280 268.139313,541.969788 
	C253.361404,542.675171 243.083664,535.753906 236.635498,522.208374 
M293.283173,501.449707 
	C288.779938,488.451172 278.401398,480.756012 265.715759,481.009796 
	C253.908325,481.246002 242.503281,489.964447 238.930283,501.485657 
	C235.515717,512.495972 240.530991,526.003723 250.661255,533.081055 
	C260.102966,539.677307 272.030182,539.644592 282.032745,532.995056 
	C292.638580,525.944458 296.410950,515.913818 293.283173,501.449707 
z"/>
<path fill="#07070A" opacity="1.000000" stroke="none" 
	d="
M472.019897,110.890068 
	C460.714752,127.532440 443.849152,132.359161 427.721283,123.856384 
	C415.509155,117.418030 408.121490,101.099144 411.329285,87.647652 
	C414.698181,73.520515 428.070618,63.676998 442.610931,62.764359 
	C466.641510,61.256062 484.260193,90.375923 472.019897,110.890068 
M471.685425,93.068542 
	C471.458984,91.927666 471.251099,90.782745 471.003296,89.646523 
	C468.266510,77.098061 457.387054,67.469826 445.261536,66.857727 
	C432.336914,66.205292 419.573334,74.642357 416.086731,86.672119 
	C412.639771,98.565140 416.230438,108.830421 425.257751,116.841774 
	C433.850800,124.467743 443.956360,126.014519 454.489563,121.108177 
	C465.913177,115.787079 472.162537,106.881454 471.685425,93.068542 
z"/>
<path fill="#FFFFFF" opacity="1.000000" stroke="none" 
	d="
M267.000244,195.614471 
	C322.793396,195.614487 378.086578,195.617401 433.379730,195.607925 
	C437.002747,195.607300 440.702759,195.480164 441.053314,200.481735 
	C441.282623,203.753326 439.986420,206.017288 436.413635,206.306305 
	C434.923920,206.426788 433.419403,206.382767 431.921631,206.382828 
	C362.472076,206.385864 293.022522,206.385498 223.572983,206.385498 
	C223.239899,206.385498 222.906509,206.376358 222.573761,206.386841 
	C218.566650,206.513016 214.539444,206.533112 214.296204,201.019409 
	C214.120377,197.034027 216.370377,195.622971 222.532150,195.618195 
	C237.188171,195.606812 251.844193,195.614502 267.000244,195.614471 
z"/>
<path fill="#FEFEFE" opacity="1.000000" stroke="none" 
	d="
M354.000000,392.000000 
	C309.175262,392.000000 264.850525,392.001160 220.525787,391.995087 
	C219.029175,391.994873 217.124054,392.482697 216.127502,391.756958 
	C214.449661,390.535065 212.240723,388.485504 212.293259,386.849518 
	C212.355042,384.925354 214.364838,382.835754 215.982864,381.293060 
	C216.709320,380.600372 218.536453,381.007904 219.864136,381.007751 
	C290.683746,380.998962 361.503326,381.000031 432.322937,381.000183 
	C433.156097,381.000183 433.989655,380.986755 434.822388,381.006226 
	C438.514282,381.092560 440.417053,383.179199 440.362457,386.680267 
	C440.311432,389.950348 438.423279,391.901642 434.984253,391.990387 
	C433.485474,392.029083 431.984985,391.999847 430.485260,391.999847 
	C405.156830,392.000061 379.828430,392.000000 354.000000,392.000000 
z"/>
<path fill="#FFFFFF" opacity="1.000000" stroke="none" 
	d="
M201.000000,288.000427 
	C257.109497,288.000427 312.718994,288.000092 368.328491,288.002197 
	C369.826630,288.002258 371.341797,287.889893 372.819489,288.070862 
	C376.175446,288.481842 378.311157,290.787933 377.565674,293.809387 
	C377.070709,295.815399 374.485626,297.412781 372.610199,298.910034 
	C371.997955,299.398834 370.673126,298.998993 369.674194,298.999023 
	C300.745056,298.999634 231.815918,299.005127 162.886795,298.968475 
	C161.108246,298.967529 158.710739,299.121368 157.700836,298.107941 
	C156.287216,296.689392 154.740982,293.695496 155.363754,292.362213 
	C156.259933,290.443665 159.023026,288.248138 161.045990,288.191406 
	C174.188766,287.822540 187.346893,288.001099 201.000000,288.000427 
z"/>
<path fill="#FDFDFD" opacity="1.000000" stroke="none" 
	d="
M293.450928,501.818787 
	C296.410950,515.913818 292.638580,525.944458 282.032745,532.995056 
	C272.030182,539.644592 260.102966,539.677307 250.661255,533.081055 
	C240.530991,526.003723 235.515717,512.495972 238.930283,501.485657 
	C242.503281,489.964447 253.908325,481.246002 265.715759,481.009796 
	C278.401398,480.756012 288.779938,488.451172 293.450928,501.818787 
z"/>
<path fill="#FDFDFD" opacity="1.000000" stroke="none" 
	d="
M471.745178,93.491699 
	C472.162537,106.881454 465.913177,115.787079 454.489563,121.108177 
	C443.956360,126.014519 433.850800,124.467743 425.257751,116.841774 
	C416.230438,108.830421 412.639771,98.565140 416.086731,86.672119 
	C419.573334,74.642357 432.336914,66.205292 445.261536,66.857727 
	C457.387054,67.469826 468.266510,77.098061 471.003296,89.646523 
	C471.251099,90.782745 471.458984,91.927666 471.745178,93.491699 
z"/>
</svg>